HIERARCHY
ROOT Hips
{
	OFFSET 0.000000 103.266502 0.000000
	CHANNELS 6 Xposition Yposition Zposition Xrotation Yrotation Zrotation 
	JOINT Spine
	{
		OFFSET -0.002400 12.777504 0.315300
		CHANNELS 3 Xrotation Yrotation Zrotation
		JOINT Spine1
		{
			OFFSET -0.002067 5.816869 0.032633
			CHANNELS 3 Xrotation Yrotation Zrotation
			JOINT Spine1_split
			{
				OFFSET -0.002067 5.816869 0.032633
				CHANNELS 3 Xrotation Yrotation Zrotation
				JOINT Spine2
				{
					OFFSET -0.002067 5.816869 0.032633
					CHANNELS 3 Xrotation Yrotation Zrotation
					JOINT Neck
					{
						OFFSET -0.003700 21.199493 -0.826900
						CHANNELS 3 Xrotation Yrotation Zrotation
						JOINT Head
						{
							OFFSET 0.000000 20.442200 4.834800
							CHANNELS 3 Xrotation Yrotation Zrotation
							JOINT HeadTop_End
							{
								OFFSET 0.000000 34.668396 4.968400
								CHANNELS 3 Xrotation Yrotation Zrotation
								End Site
								{
									OFFSET 0.000000 0.000000 0.000000
								}
							}
						}
					}
					JOINT LeftShoulder
					{
						OFFSET 3.288150 8.794197 -1.372250
						CHANNELS 3 Xrotation Yrotation Zrotation
						JOINT LeftShoulder_split
						{
							OFFSET 3.288150 8.794197 -1.372250
							CHANNELS 3 Xrotation Yrotation Zrotation
							JOINT LeftArm
							{
								OFFSET 11.953299 -2.279007 -0.146200
								CHANNELS 3 Xrotation Yrotation Zrotation
								JOINT LeftForeArm
								{
									OFFSET 18.448900 0.000000 0.000000
									CHANNELS 3 Xrotation Yrotation Zrotation
									JOINT LeftHand
									{
										OFFSET 29.527798 0.000000 0.000000
										CHANNELS 3 Xrotation Yrotation Zrotation
										JOINT LeftHandThumb1
										{
											OFFSET 10.739754 -2.369614 9.225399
											CHANNELS 3 Xrotation Yrotation Zrotation
											JOINT LeftHandThumb2
											{
												OFFSET 4.926170 -2.844131 2.844125
												CHANNELS 3 Xrotation Yrotation Zrotation
												JOINT LeftHandThumb3
												{
													OFFSET 4.614891 -2.664413 2.664409
													CHANNELS 3 Xrotation Yrotation Zrotation
													JOINT LeftHandThumb4
													{
														OFFSET 4.432465 -2.559082 2.559083
														CHANNELS 3 Xrotation Yrotation Zrotation
														End Site
														{
															OFFSET 0.000000 0.000000 0.000000
														}
													}
												}
											}
										}
										JOINT LeftHandIndex1
										{
											OFFSET 26.467674 0.187653 6.405298
											CHANNELS 3 Xrotation Yrotation Zrotation
											JOINT LeftHandIndex2
											{
												OFFSET 8.792900 0.000000 0.000000
												CHANNELS 3 Xrotation Yrotation Zrotation
												JOINT LeftHandIndex3
												{
													OFFSET 10.075203 0.000000 0.000000
													CHANNELS 3 Xrotation Yrotation Zrotation
													End Site
													{
														OFFSET 0.000000 0.000000 0.000000
													}
												}
											}
										}
										JOINT LeftHandMiddle1
										{
											OFFSET 25.764404 0.000000 0.000000
											CHANNELS 3 Xrotation Yrotation Zrotation
											JOINT LeftHandMiddle2
											{
												OFFSET 9.393974 0.000000 0.000000
												CHANNELS 3 Xrotation Yrotation Zrotation
												JOINT LeftHandMiddle3
												{
													OFFSET 10.771950 0.000000 0.000000
													CHANNELS 3 Xrotation Yrotation Zrotation
													End Site
													{
														OFFSET 0.000000 0.000000 0.000000
													}
												}
											}
										}
										JOINT LeftHandRing1
										{
											OFFSET 24.660927 0.144547 -6.225808
											CHANNELS 3 Xrotation Yrotation Zrotation
											JOINT LeftHandRing2
											{
												OFFSET 9.393799 0.000000 0.000000
												CHANNELS 3 Xrotation Yrotation Zrotation
												JOINT LeftHandRing3
												{
													OFFSET 9.928497 0.000000 0.000000
													CHANNELS 3 Xrotation Yrotation Zrotation
													End Site
													{
														OFFSET 0.000000 0.000000 0.000000
													}
												}
											}
										}
										JOINT LeftHandPinky1
										{
											OFFSET 23.655350 0.125290 -12.815412
											CHANNELS 3 Xrotation Yrotation Zrotation
											JOINT LeftHandPinky2
											{
												OFFSET 8.425102 0.000000 0.000000
												CHANNELS 3 Xrotation Yrotation Zrotation
												JOINT LeftHandPinky3
												{
													OFFSET 8.147003 0.000000 0.000000
													CHANNELS 3 Xrotation Yrotation Zrotation
													End Site
													{
														OFFSET 0.000000 0.000000 0.000000
													}
												}
											}
										}
									}
								}
							}
						}
					}
					JOINT RightShoulder
					{
						OFFSET -3.249400 8.794197 -1.372250
						CHANNELS 3 Xrotation Yrotation Zrotation
						JOINT RightShoulder_split
						{
							OFFSET -3.249400 8.794197 -1.372250
							CHANNELS 3 Xrotation Yrotation Zrotation
							JOINT RightArm
							{
								OFFSET -11.953299 -2.279007 -0.146200
								CHANNELS 3 Xrotation Yrotation Zrotation
								JOINT RightForeArm
								{
									OFFSET -18.448900 0.000000 0.000000
									CHANNELS 3 Xrotation Yrotation Zrotation
									JOINT RightHand
									{
										OFFSET -29.527802 0.000000 0.000000
										CHANNELS 3 Xrotation Yrotation Zrotation
										JOINT RightHandThumb1
										{
											OFFSET -10.739754 -2.369614 9.225399
											CHANNELS 3 Xrotation Yrotation Zrotation
											JOINT RightHandThumb2
											{
												OFFSET -4.926170 -2.844131 2.844125
												CHANNELS 3 Xrotation Yrotation Zrotation
												JOINT RightHandThumb3
												{
													OFFSET -4.614891 -2.664413 2.664409
													CHANNELS 3 Xrotation Yrotation Zrotation
													JOINT RightHandThumb4
													{
														OFFSET -4.432465 -2.559082 2.559083
														CHANNELS 3 Xrotation Yrotation Zrotation
														End Site
														{
															OFFSET 0.000000 0.000000 0.000000
														}
													}
												}
											}
										}
										JOINT RightHandIndex1
										{
											OFFSET -26.467674 0.187653 6.405298
											CHANNELS 3 Xrotation Yrotation Zrotation
											JOINT RightHandIndex2
											{
												OFFSET -8.792900 0.000000 0.000000
												CHANNELS 3 Xrotation Yrotation Zrotation
												JOINT RightHandIndex3
												{
													OFFSET -10.075203 0.000000 0.000000
													CHANNELS 3 Xrotation Yrotation Zrotation
													End Site
													{
														OFFSET 0.000000 0.000000 0.000000
													}
												}
											}
										}
										JOINT RightHandMiddle1
										{
											OFFSET -25.764404 0.000000 0.000000
											CHANNELS 3 Xrotation Yrotation Zrotation
											JOINT RightHandMiddle2
											{
												OFFSET -9.393974 0.000000 0.000000
												CHANNELS 3 Xrotation Yrotation Zrotation
												JOINT RightHandMiddle3
												{
													OFFSET -10.771950 0.000000 0.000000
													CHANNELS 3 Xrotation Yrotation Zrotation
													End Site
													{
														OFFSET 0.000000 0.000000 0.000000
													}
												}
											}
										}
										JOINT RightHandRing1
										{
											OFFSET -24.660927 0.144547 -6.225808
											CHANNELS 3 Xrotation Yrotation Zrotation
											JOINT RightHandRing2
											{
												OFFSET -9.393799 0.000000 0.000000
												CHANNELS 3 Xrotation Yrotation Zrotation
												JOINT RightHandRing3
												{
													OFFSET -9.928497 0.000000 0.000000
													CHANNELS 3 Xrotation Yrotation Zrotation
													End Site
													{
														OFFSET 0.000000 0.000000 0.000000
													}
												}
											}
										}
										JOINT RightHandPinky1
										{
											OFFSET -23.655350 0.125290 -12.815412
											CHANNELS 3 Xrotation Yrotation Zrotation
											JOINT RightHandPinky2
											{
												OFFSET -8.425102 0.000000 0.000000
												CHANNELS 3 Xrotation Yrotation Zrotation
												JOINT RightHandPinky3
												{
													OFFSET -8.147003 0.000000 0.000000
													CHANNELS 3 Xrotation Yrotation Zrotation
													End Site
													{
														OFFSET 0.000000 0.000000 0.000000
													}
												}
											}
										}
									}
								}
							}
						}
					}
				}
			}
		}
	}
	JOINT LeftUpLeg
	{
		OFFSET 11.394100 -6.187798 -0.413800
		CHANNELS 3 Xrotation Yrotation Zrotation
		JOINT LeftLeg
		{
			OFFSET 0.430247 -32.302673 3.732800
			CHANNELS 3 Xrotation Yrotation Zrotation
			JOINT LeftFoot
			{
				OFFSET -0.430247 -48.264931 -6.423300
				CHANNELS 3 Xrotation Yrotation Zrotation
				JOINT LeftToeBase
				{
					OFFSET 4.230900 -16.068199 23.438400
					CHANNELS 3 Xrotation Yrotation Zrotation
					JOINT LeftToe_End
					{
						OFFSET 4.510700 0.695400 19.974600
						CHANNELS 3 Xrotation Yrotation Zrotation
						End Site
						{
							OFFSET 0.000000 0.000000 0.000000
						}
					}
				}
			}
		}
	}
	JOINT RightUpLeg
	{
		OFFSET -11.333700 -6.187798 -0.413800
		CHANNELS 3 Xrotation Yrotation Zrotation
		JOINT RightLeg
		{
			OFFSET -0.430392 -32.302628 3.733000
			CHANNELS 3 Xrotation Yrotation Zrotation
			JOINT RightFoot
			{
				OFFSET 0.430392 -48.264973 -6.423500
				CHANNELS 3 Xrotation Yrotation Zrotation
				JOINT RightToeBase
				{
					OFFSET -4.230900 -16.068199 23.438400
					CHANNELS 3 Xrotation Yrotation Zrotation
					JOINT RightToe_End
					{
						OFFSET -4.510700 0.695400 19.974600
						CHANNELS 3 Xrotation Yrotation Zrotation
						End Site
						{
							OFFSET 0.000000 0.000000 0.000000
						}
					}
				}
			}
		}
	}
}
MOTION
Frames: 6
Frame Time: 0.016667
-0.188529 94.284828 0.075365 -6.091882 -43.084157 -4.028574 5.833150 4.695330 -1.240713 11.835728 9.038087 -3.084130 0.000000 0.000000 0.000000 11.835731 9.038082 -3.084132 -4.303059 -1.272931 0.206306 -6.271929 20.437789 -0.377164 -0.000001 0.000000 0.000000 1.387431 -0.696988 -7.876279 0.000000 0.000000 0.000000 -14.260090 2.393806 -63.277106 9.865057 -47.524887 5.927938 16.172812 0.916343 18.795309 9.163598 4.814127 -5.499026 -0.335371 0.032567 0.783665 -0.000003 -0.000005 -0.000014 -0.000002 0.000003 -0.000001 -0.902035 -6.980927 -3.808447 0.026593 0.806445 -16.418897 0.000001 0.000001 -0.000002 1.947557 9.681370 -14.539572 -0.461221 -1.564447 -21.881063 0.000002 -0.000003 0.000003 2.605812 14.896559 -31.345213 -0.570650 -2.704763 -32.012045 -0.000001 -0.000001 -0.000002 4.171037 18.494919 -34.987412 -0.706796 -5.788633 -39.372899 -0.000001 0.000000 -0.000001 1.410920 9.461509 9.792740 0.000000 0.000000 0.000000 1.220046 -24.270710 60.532914 -6.660692 41.858381 8.043851 6.225275 12.322332 11.673253 -8.895791 -4.903200 -0.383690 7.903377 -19.189679 -2.856956 -0.000001 0.000001 -0.000011 -0.000002 -0.000001 -0.000002 -1.096332 -1.217226 4.525384 0.141702 -1.115734 16.942588 0.000000 -0.000001 -0.000001 -0.670816 -2.905547 12.731501 -0.652518 1.804275 30.579495 -0.000000 -0.000002 -0.000003 2.418893 -7.406063 21.762689 -0.995466 3.769846 37.430629 0.000001 -0.000001 0.000002 3.482205 -10.050681 24.322247 -1.467009 7.868264 41.092863 -0.000001 -0.000002 0.000001 -30.528350 4.939423 14.030026 33.600812 -13.722982 -0.142475 -0.499551 0.502402 -8.886926 -2.321966 -3.217389 0.803263 -0.000000 0.000003 0.000000 -6.240737 -12.866765 -16.842649 32.320151 -9.243181 -0.477074 -18.021106 -3.762323 17.731227 -1.785094 -0.356711 0.333198 -0.000000 -0.000001 -0.000000 
-0.184082 94.279510 0.083171 -6.065101 -43.162458 -4.003306 5.828297 4.700537 -1.251337 11.826961 9.047803 -3.104682 0.000000 0.000000 0.000000 11.826966 9.047795 -3.104678 -4.348296 -1.296195 0.185085 -6.207250 20.521773 -0.394174 -0.000001 0.000000 0.000000 1.387392 -0.696821 -7.876270 0.000000 0.000000 0.000000 -14.262255 2.393783 -63.250666 9.848934 -47.561039 5.920513 16.146007 0.904696 18.680742 9.281170 4.985903 -5.486670 -0.249602 0.224361 0.816302 -0.000000 -0.000003 -0.000018 -0.000002 0.000003 -0.000002 -0.895027 -6.979110 -3.983062 0.019743 0.784220 -16.611455 -0.000001 0.000001 0.000000 1.943551 9.666289 -14.728985 -0.467820 -1.583376 -22.065394 0.000000 0.000003 -0.000002 2.597688 14.883722 -31.520288 -0.579619 -2.719013 -32.210462 0.000000 0.000001 -0.000000 4.160766 18.488390 -35.170488 -0.709432 -5.791673 -39.559254 -0.000002 -0.000001 0.000000 1.398774 9.503313 9.802039 0.000000 0.000000 0.000000 1.235476 -24.253401 60.503612 -6.635580 41.828621 8.061800 6.205725 12.287854 11.583841 -8.744219 -4.912960 -0.267385 7.890830 -19.193887 -2.875776 -0.000001 0.000004 -0.000011 0.000001 0.000000 -0.000002 -1.094936 -1.224537 4.426567 0.143565 -1.121786 16.879885 0.000000 -0.000001 -0.000000 -0.667435 -2.920385 12.633025 -0.649451 1.799057 30.481874 -0.000001 -0.000002 -0.000004 2.423718 -7.418805 21.676025 -0.988831 3.761197 37.329374 -0.000001 0.000000 0.000004 3.489127 -10.065737 24.227647 -1.459271 7.863634 40.993607 -0.000001 0.000000 0.000001 -30.537397 4.937453 14.016060 33.640266 -13.635014 -0.116410 -0.536795 0.507365 -8.904666 -2.321964 -3.217362 0.803264 -0.000000 -0.000002 -0.000000 -6.328181 -12.863433 -16.844488 32.352171 -9.171545 -0.536514 -18.025341 -3.764163 17.732226 -1.785095 -0.356709 0.333197 0.000000 -0.000001 -0.000000 
-0.182429 94.287498 0.081715 -6.034977 -43.228698 -3.968169 5.824645 4.697481 -1.260873 11.819972 9.041232 -3.121164 0.000000 0.000000 0.000000 11.819971 9.041238 -3.121163 -4.387863 -1.297852 0.163178 -6.136322 20.653462 -0.443795 -0.000000 -0.000000 0.000000 1.389712 -0.709917 -7.876829 0.000000 0.000000 0.000000 -14.244243 2.394032 -63.227218 9.904602 -47.573152 5.947268 16.178304 0.914637 18.773786 9.414839 5.159723 -5.469231 -0.170199 0.412549 0.856135 0.000000 -0.000007 -0.000017 -0.000002 0.000000 -0.000000 -0.885486 -6.977799 -4.153081 0.012754 0.761541 -16.807788 0.000003 -0.000001 0.000001 1.939553 9.651377 -14.916308 -0.474096 -1.601146 -22.238814 0.000001 -0.000000 0.000001 2.589833 14.871378 -31.688850 -0.588522 -2.733082 -32.406034 0.000002 -0.000001 -0.000001 4.151077 18.482350 -35.342643 -0.711819 -5.794516 -39.734544 -0.000001 -0.000003 -0.000002 1.393259 9.523885 9.813710 0.000000 0.000000 0.000000 1.197304 -24.211977 60.500682 -6.605038 41.712686 8.037637 6.258857 12.244934 11.498278 -8.538361 -4.895337 -0.106985 7.856103 -19.205496 -2.927883 0.000000 0.000003 -0.000009 0.000001 0.000001 -0.000000 -1.093472 -1.232166 4.323061 0.143914 -1.122950 16.867304 0.000001 -0.000003 -0.000001 -0.663455 -2.937935 12.524943 -0.646094 1.793345 30.374527 -0.000000 -0.000001 0.000001 2.430984 -7.439401 21.599215 -0.980321 3.750009 37.198925 -0.000001 0.000000 0.000000 3.495814 -10.078048 24.121576 -1.450824 7.858614 40.884638 0.000001 -0.000000 -0.000001 -30.520069 4.938605 13.990113 33.614107 -13.550674 -0.087295 -0.542277 0.508003 -8.939500 -2.321967 -3.217357 0.803264 -0.000000 -0.000001 0.000000 -6.388967 -12.852952 -16.836459 32.344252 -9.134635 -0.596530 -18.011470 -3.761714 17.737214 -1.785097 -0.356750 0.333194 -0.000000 0.000000 -0.000000 
-0.178148 94.287682 0.085319 -5.984674 -43.301190 -3.922207 5.819312 4.690085 -1.267711 11.809249 9.026350 -3.132223 0.000000 0.000000 0.000000 11.809249 9.026344 -3.132227 -4.418633 -1.266527 0.119655 -6.071695 20.811253 -0.506489 -0.000000 -0.000000 -0.000000 1.389224 -0.712570 -7.883957 0.000000 0.000000 0.000000 -14.233990 2.393102 -63.219220 9.867930 -47.596293 5.922703 16.138892 0.892879 18.667020 9.527654 5.320427 -5.445007 -0.082372 0.613067 0.892562 -0.000000 -0.000004 -0.000018 -0.000000 0.000001 0.000002 -0.878619 -6.976108 -4.318746 0.006558 0.741421 -16.982087 -0.000001 -0.000000 -0.000001 1.935615 9.636932 -15.098087 -0.480063 -1.617972 -22.403401 -0.000002 0.000002 -0.000001 2.581125 14.857798 -31.874734 -0.595913 -2.743333 -32.579514 0.000003 -0.000000 0.000000 4.139510 18.469574 -35.515648 -0.714228 -5.797205 -39.900083 -0.000001 -0.000000 -0.000001 1.393279 9.550947 9.804898 0.000000 0.000000 0.000000 1.182787 -24.200779 60.514356 -6.580814 41.627257 8.001261 6.320976 12.185653 11.442673 -8.394745 -4.917738 0.003173 7.849039 -19.207858 -2.938481 -0.000002 0.000001 -0.000009 -0.000001 0.000001 -0.000000 -1.091894 -1.240396 4.212029 0.146041 -1.129845 16.796142 -0.000000 -0.000001 -0.000001 -0.661694 -2.945910 12.408748 -0.642761 1.787650 30.268096 -0.000000 -0.000001 0.000002 2.436794 -7.454683 21.485123 -0.971959 3.739011 37.070650 -0.000000 -0.000001 0.000002 3.502974 -10.091384 24.007350 -1.441688 7.853029 40.767114 -0.000001 0.000002 0.000001 -30.538896 4.937717 13.978805 33.619028 -13.474485 -0.073618 -0.560656 0.510716 -8.962634 -2.321968 -3.217372 0.803264 -0.000000 0.000002 0.000000 -6.478697 -12.834661 -16.835160 32.359230 -9.092583 -0.653751 -18.003791 -3.763338 17.746300 -1.790345 -0.360809 0.338232 -0.000000 -0.000001 0.000000 
-0.175116 94.291992 0.083182 -5.939832 -43.366223 -3.877763 5.816837 4.675930 -1.274496 11.803852 8.997834 -3.142078 0.000000 0.000000 0.000000 11.803861 8.997830 -3.142081 -4.445932 -1.219821 0.079433 -6.011194 21.010847 -0.587839 -0.000000 -0.000000 0.000000 1.389178 -0.727271 -7.903652 0.000000 0.000000 0.000000 -14.193233 2.416424 -63.198169 9.925535 -47.632681 5.957014 16.172606 0.897519 18.734155 9.612836 5.471869 -5.407997 0.016388 0.828462 0.923190 0.000001 -0.000002 -0.000018 -0.000001 0.000000 0.000003 -0.875238 -6.973903 -4.482530 0.001039 0.723427 -17.138041 0.000003 -0.000001 0.000002 1.931758 9.622894 -15.274535 -0.485788 -1.634069 -22.559171 -0.000002 0.000002 -0.000001 2.572670 14.846050 -32.076354 -0.602607 -2.753004 -32.732319 -0.000005 0.000001 0.000001 4.126617 18.452186 -35.689596 -0.716422 -5.799727 -40.056037 -0.000001 -0.000000 -0.000001 1.394625 9.568493 9.789848 0.000000 0.000000 0.000000 1.143559 -24.160806 60.514049 -6.548418 41.493037 7.985892 6.402213 12.095239 11.345583 -8.318022 -4.994412 0.056197 7.878550 -19.196916 -2.904272 0.000002 0.000003 -0.000008 0.000002 0.000000 -0.000001 -1.090327 -1.248970 4.100310 0.149839 -1.142141 16.668231 0.000001 0.000001 -0.000000 -0.662044 -2.944656 12.279110 -0.639597 1.782194 30.166319 -0.000000 -0.000002 -0.000001 2.436546 -7.463091 21.336539 -0.964579 3.730778 36.948093 -0.000000 0.000001 0.000001 3.510587 -10.105604 23.885482 -1.435367 7.845759 40.642330 -0.000001 -0.000000 -0.000004 -30.542659 4.933368 13.954102 33.606184 -13.390279 -0.046348 -0.571549 0.508454 -8.995311 -2.321968 -3.217347 0.803260 -0.000000 0.000000 -0.000000 -6.553983 -12.812513 -16.824487 32.360432 -9.061896 -0.714461 -17.990701 -3.765645 17.759305 -1.795665 -0.370148 0.345642 -0.000000 -0.000000 -0.000000 
-0.164030 94.278999 0.085683 -5.889293 -43.399937 -3.857979 5.813867 4.652826 -1.269806 11.796542 8.952125 -3.131485 0.000000 0.000000 0.000000 11.796545 8.952106 -3.131479 -4.488832 -1.152439 0.043641 -5.925969 21.237718 -0.708173 -0.000000 -0.000000 -0.000000 1.387838 -0.728947 -7.915404 0.000000 0.000000 0.000000 -14.166470 2.425162 -63.199406 9.933049 -47.698589 5.967210 16.150944 0.912102 18.633110 9.680266 5.662783 -5.370516 0.139141 1.069322 0.934795 -0.000000 -0.000002 -0.000017 -0.000003 0.000004 -0.000005 -0.875643 -6.984323 -4.644684 -0.004075 0.706755 -17.282532 0.000003 -0.000000 -0.000001 1.928356 9.610667 -15.428617 -0.491261 -1.649300 -22.707495 0.000002 0.000002 -0.000001 2.567335 14.840548 -32.231874 -0.608946 -2.762286 -32.874817 -0.000002 0.000001 0.000001 4.123874 18.449009 -35.835619 -0.718336 -5.801946 -40.194799 -0.000000 -0.000001 -0.000002 1.387524 9.596395 9.798589 0.000000 0.000000 0.000000 1.148339 -24.173351 60.480164 -6.532694 41.475781 7.986717 6.421954 11.999322 11.317569 -8.268539 -5.096046 0.088953 7.933681 -19.180752 -2.848826 -0.000002 0.000002 -0.000010 -0.000000 0.000000 -0.000000 -1.088972 -1.257490 3.989384 0.153497 -1.154804 16.536636 -0.000001 -0.000000 0.000000 -0.660690 -2.950898 12.169061 -0.634938 1.772021 30.036764 0.000001 -0.000000 -0.000000 2.434162 -7.467700 21.203614 -0.958524 3.722627 36.830074 0.000001 -0.000001 0.000002 3.518537 -10.120560 23.757242 -1.428753 7.838143 40.510948 -0.000002 0.000001 -0.000001 -30.615725 4.905883 13.943361 33.677706 -13.335173 -0.006026 -0.602635 0.505766 -9.016843 -2.321960 -3.217362 0.803263 -0.000000 -0.000003 -0.000000 -6.633483 -12.789677 -16.794949 32.399921 -9.054879 -0.761075 -17.993452 -3.773588 17.778511 -1.801784 -0.375957 0.351556 -0.000000 -0.000001 -0.000000 
